<?xml version="1.0" encoding="UTF-8"?><svg id="Lag_5" xmlns="http://www.w3.org/2000/svg" xmlns:xlink="http://www.w3.org/1999/xlink" viewBox="0 0 2098.06 1181.35"><defs><style>.cls-1{filter:url(#drop-shadow-2);font-size:255.89px;}.cls-1,.cls-2,.cls-3,.cls-4{stroke-miterlimit:10;}.cls-1,.cls-2,.cls-4{fill:#ffc53a;font-family:BerlinSansFBDemi-Bold, 'Berlin Sans FB Demi';font-weight:700;stroke:#000;stroke-width:5.67px;}.cls-2{filter:url(#drop-shadow-4);font-size:292.32px;}.cls-3{fill:#00523d;stroke:#fff;}.cls-5{filter:url(#drop-shadow-1);}.cls-4{filter:url(#drop-shadow-3);font-size:271.13px;}</style><filter id="drop-shadow-1" filterUnits="userSpaceOnUse"><feOffset dx="10" dy="7"/><feGaussianBlur result="blur" stdDeviation="0"/><feFlood flood-color="#000" flood-opacity="1"/><feComposite in2="blur" operator="in"/><feComposite in="SourceGraphic"/></filter><filter id="drop-shadow-2" filterUnits="userSpaceOnUse"><feOffset dx="10" dy="7"/><feGaussianBlur result="blur-2" stdDeviation="0"/><feFlood flood-color="#000" flood-opacity="1"/><feComposite in2="blur-2" operator="in"/><feComposite in="SourceGraphic"/></filter><filter id="drop-shadow-3" filterUnits="userSpaceOnUse"><feOffset dx="10" dy="7"/><feGaussianBlur result="blur-3" stdDeviation="0"/><feFlood flood-color="#000" flood-opacity="1"/><feComposite in2="blur-3" operator="in"/><feComposite in="SourceGraphic"/></filter><filter id="drop-shadow-4" filterUnits="userSpaceOnUse"><feOffset dx="10" dy="7"/><feGaussianBlur result="blur-4" stdDeviation="0"/><feFlood flood-color="#000" flood-opacity="1"/><feComposite in2="blur-4" operator="in"/><feComposite in="SourceGraphic"/></filter></defs><g class="cls-5"><path class="cls-3" d="M1058.34,197.23c-2.87,1.3-6,2.69-9.32,3.99-1.66.65-3.36,1.29-5.08,1.91-1.73.63-3.46,1.29-5.22,1.89-7.05,2.39-14.21,4.65-20.65,6.14-12.8,3.11-22.67,3.57-21.68-2.87-2.5-1.27-5.03-2.53-7.57-3.77,2.56-1.05,6.11-2.58,10.29-4.36,4.22-1.71,9.07-3.68,14.24-5.62,5.2-1.87,10.64-3.87,16.09-5.48,2.72-.83,5.41-1.63,8.03-2.35,2.64-.68,5.22-1.3,7.67-1.84,4.9-1.12,9.39-1.76,13.01-1.99,3.62-.23,6.4.01,7.98.9,3.16,1.75,1.34,5.71-7.8,13.45Z"/><path class="cls-3" d="M1078.64,241.18c-4.96.63-7.88.64-9.39.25-1.51-.38-1.65-1.22-1.1-2.31,1.11-2.18,5.04-5.25,6.09-7.71,8.88-2.55,17.84-4.74,26.83-6.8,2.36.73,2.76,1.86,1.89,3.14-.87,1.29-3.01,2.83-5.76,4.39-1.37.78-2.9,1.58-4.5,2.36-1.59.8-3.25,1.64-4.9,2.42-3.3,1.58-6.58,3.01-9.16,4.27Z"/><path class="cls-3" d="M1100.98,341.06c2.24.09,4.51.28,6.75.45-6.74-.59-15.8,1.52-21.37,3.78-1.22-2.4.4-5.92,3.97-9.16,1.78-1.63,4.09-3.05,6.72-4.27,2.62-1.24,5.64-2.05,8.82-2.44-.34,1.17-1.31,2.3-2.46,3.38-1.15,1.07-2.47,2.09-3.48,3.11-2.03,2.01-2.87,3.75,1.05,5.14Z"/><path class="cls-3" d="M778.54,500.79c3.1,2.98,7.46,4.27,12.63,4.27,2.59,0,5.38-.33,8.32-.93,2.94-.6,6.1-1.44,9.33-2.53,6.43-2.19,13.45-5.19,20.48-8.8,3.58-1.77,7.16-3.7,10.69-5.75,3.61-2.01,7.18-4.14,10.67-6.38,5.98,7.71,12.06,15.2,18.28,22.51-2.64,1.53-5.18,3.52-7.61,5.89-2.38,2.4-4.63,5.2-6.8,8.29-1.04,1.57-2.06,3.21-3.06,4.91-.99,1.71-2,3.45-2.89,5.3-1.81,3.68-3.6,7.55-5.13,11.61-3.22,8.08-5.77,16.8-8.12,25.43-1.1,4.34-2.26,8.62-3.23,12.87-1.03,4.22-2.03,8.36-3.01,12.36,1.03,6.78,5.19-.02,8.67-4.28,1.78-2.14,3.44-3.64,4.41-2.64.49.5.81,1.62.92,3.61.15,2,.1,4.86-.22,8.81-4.71,2.45-10.58-1.74-14.7,4.27.22,14.88,6.68,19.54,10.74,27.75,1.05,2.05,1.96,4.32,2.61,7.01.66,2.69,1.19,5.83,1.3,9.6.38,7.57-.64,17.66-2.74,32.47l-3.44,4.86c-1.15,1.63-2.32,3.28-3.4,4.94l-3.32,5.03c-1.11,1.69-2.23,3.39-3.27,5.11.21,26.54,4.43,53.16,11.71,78.71,7.28,25.58,17.59,50.09,29.73,73.14,12.14,23.08,26.07,44.72,40.71,65.29,14.66,20.59,30.02,40.14,45.45,59.57,11.07,1.16,24.76,10.76,40.25,20.41,3.82,2.48,7.82,4.84,11.78,7.24,2.01,1.14,4.03,2.29,6.03,3.43,1.99,1.15,4.05,2.16,6.05,3.2,1.01.51,2.01,1.02,3.01,1.52,1,.49,2.02.94,3.02,1.39,2.01.9,3.99,1.76,5.95,2.55,1.98.75,3.94,1.44,5.85,2.06.96.31,1.9.61,2.84.87.95.25,1.89.48,2.81.69l-3.33,7.33c2.71-.47,5.28-.36,7.86.01,2.57.39,5.06,1.19,7.53,2.27,2.49,1.03,4.95,2.36,7.38,3.9,2.46,1.49,4.93,3.15,7.38,4.94,2.48,1.74,4.98,3.54,7.48,5.37,2.52,1.79,5.08,3.51,7.62,5.18,2.56,1.63,5.16,3.07,7.74,4.36,2.58,1.27,5.21,2.21,7.78,2.91,5.17,4.5,10.51,8.88,16.02,13.16.87,3.72-2.13,4.96-7.07,5.08-2.47.1-5.38-.24-8.51-.63-1.56-.21-3.19-.4-4.81-.68-1.63-.27-3.28-.54-4.9-.81-3.28-.48-6.47-1.02-9.37-1.29-1.45-.13-2.83-.19-4.1-.16-1.27.02-2.42.1-3.45.31-4.08.85-6.05,3.58-3.6,9.93,9.29,6.74,19.02,10.5,28.62,12.46,9.62,1.93,19.05,2.32,28.21,2.26,4.56.07,9.09-.11,13.51,0,2.21.05,4.43.03,6.63.14,2.2.08,4.37.31,6.55.47,4.36.39,8.67,1.19,13.04,2.31,2.18.57,4.36,1.34,6.56,2.14,2.21.81,4.43,1.78,6.67,2.93,2.25.5,4.37.8,6.34,1.11,1.97.29,3.81.53,5.52.72,3.43.3,6.38.37,8.95.31.64-.02,1.26-.04,1.86-.08.6-.05,1.18-.11,1.74-.18,1.12-.13,2.16-.3,3.14-.49,1.96-.38,3.67-.86,5.27-1.41,3.2-1.16,5.96-2.61,9.29-4,1.67-.67,3.48-1.44,5.56-2.12,2.08-.7,4.44-1.32,7.2-1.95,2.72-4.18.84-6.07-1.38-8.14-2.24-2.11-4.82-4.37-3.77-9.09,1.2-.1,2.38-.18,3.54-.25,1.16-.09,2.3-.18,3.43-.27,2.25-.16,4.44-.28,6.57-.34,2.12-.12,4.18-.21,6.19-.25,2.01-.02,3.96-.03,5.86-.05,3.8-.03,7.41.19,10.84.34,3.44.19,6.72.57,9.87.89,12.6,1.5,23.27,4.34,33.95,6.83,10.66,2.49,21.38,4.81,33.72,4.54,6.17-.13,12.75-.86,19.88-2.58.89-.21,1.8-.42,2.7-.67.9-.27,1.81-.54,2.74-.81,1.84-.57,3.73-1.19,5.65-1.86,1.93-.67,3.86-1.5,5.85-2.33,1.98-.86,4.04-1.71,6.08-2.77-.06-1.83,2.85-5.58,6.22-10.08,1.68-2.27,3.48-4.7,5.13-7.12,1.64-2.45,3.09-4.94,4.15-7.22,2.12-4.55,2.48-8.48-.7-10.27-1.59-.89-4.11-1.35-7.74-1.12-1.82.11-3.9.4-6.35.78-2.44.38-5.16,1.01-8.28,1.7-3.07,2.86-6.15,5.81-9.35,8.58-1.6,1.4-3.18,2.85-4.81,4.23l-4.92,4.13c-3.1-.4-6.23-.97-9.3-1.47l-4.59-.79-4.58-.91c2.18-.74,4.59-1.53,7.1-2.48,1.26-.46,2.55-.93,3.86-1.41.65-.24,1.31-.48,1.98-.73.65-.26,1.31-.53,1.97-.8,2.63-1.09,5.32-2.13,7.87-3.33,2.55-1.2,5.02-2.39,7.28-3.6,4.49-2.53,8.24-4.98,10.3-7.37,2.09-2.35,2.59-4.44.72-6.14,1.08.54,2.19.98,3.33,1.3,1.13.3,2.3.5,3.49.61,2.38.2,4.88.04,7.41-.49,2.52-.56,5.11-1.44,7.73-2.56,2.59-1.17,5.19-2.62,7.78-4.23,10.34-6.55,19.99-16.46,27.35-24.93,3.67-4.27,6.9-8.06,9.49-10.97,1.31-1.44,2.51-2.59,3.54-3.47,1.03-.88,1.92-1.42,2.67-1.57,1.5-.29,2.44,1.02,2.66,4.53.23,3.56-.34,9.2-2.06,17.81-1.91.81-3.71,1.59-5.43,2.35-1.71.76-3.33,1.51-4.91,2.18-1.57.69-3.05,1.36-4.45,2.03-1.4.68-2.74,1.32-4.03,1.95-2.57,1.25-4.85,2.53-6.95,3.8-2.12,1.25-4.02,2.54-5.76,3.93-7.07,5.42-11.7,12.2-18.22,22.56,8.37-3.9,16.47-8.06,24.48-12.2,1.99-1.06,3.98-2.11,5.96-3.16,1.99-1.04,3.92-2.16,5.88-3.23,3.94-2.1,7.73-4.39,11.58-6.56,1.9-1.13,3.78-2.26,5.67-3.39.95-.56,1.89-1.12,2.83-1.68.93-.58,1.85-1.16,2.78-1.74,1.86-1.16,3.71-2.31,5.55-3.46,1.82-1.19,3.64-2.38,5.44-3.57.91-.59,1.81-1.18,2.72-1.77.89-.61,1.78-1.22,2.67-1.83,1.78-1.22,3.56-2.43,5.33-3.64,1.74-1.25,3.48-2.5,5.21-3.75l2.6-1.87,2.54-1.93c1.7-1.28,3.39-2.56,5.08-3.84,1.66-1.32,3.31-2.63,4.95-3.94,3.33-2.59,6.47-5.36,9.68-8.04,1.59-1.36,3.12-2.76,4.67-4.14,1.54-1.39,3.12-2.75,4.6-4.19,2.99-2.85,6.01-5.66,8.84-8.61,11.51-11.65,21.88-24.04,30.65-37.17-.36-7.66-.98-15.26-1.79-22.72,3.02,1.44,6.72,1.19,10.9-.43,2.11-.8,4.24-2,6.49-3.49,2.23-1.49,4.61-3.26,6.9-5.35,9.37-8.25,19-20.99,26.5-34.72,2.44-13.43,8.88-29.22,1.27-27.48-.73-1.03-1.88-.17-3.43,1.95-.77,1.06-1.62,2.44-2.53,4.07-.9,1.63-1.92,3.5-3.04,5.53-4.29,8.18-10.03,18.98-16,27.9-.75,1.11-1.49,2.2-2.2,3.27-.74,1.05-1.51,2.05-2.24,3.02-1.48,1.93-2.92,3.7-4.3,5.22-2.84,3-5.4,5.07-7.5,5.68-2.1.61-3.74-.23-4.76-2.98-.51-1.38-.87-3.23-1.06-5.6-.09-1.19-.14-2.51-.15-3.96-.03-1.47-.03-3.08.02-4.83,17.32-28.22,32.58-59.27,45.17-89.37,12.69-30.06,22.55-59.17,32.26-82.42,1.55,17,.55,31.6.68,46.57-.01,3.74.18,7.54.32,11.4.18,3.87.56,7.84.97,11.95.22,2.06.5,4.16.83,6.31.29,2.14.62,4.33,1.02,6.58.84,4.51,1.73,9.23,2.93,14.27-2.49,31.81-10.85,63.88-23.58,94.48l-1.19,2.88-1.26,2.85-2.54,5.69c-1.72,3.79-3.57,7.51-5.37,11.27-1.92,3.7-3.79,7.43-5.78,11.09l-3.03,5.48-1.52,2.74-1.59,2.7c-8.42,14.45-17.73,28.41-27.74,41.84-10.02,13.42-20.8,26.25-32.05,38.57-11.27,12.31-23.01,24.13-35.17,35.39-24.33,22.56-50,43.19-76.3,62.85-4.29-3.06-14.34-1.56-22.71-1.32-1.04.04-2.05.07-3.03.07-.98-.02-1.92-.06-2.8-.13-1.76-.14-3.28-.41-4.46-.89-2.36-.95-3.33-2.71-2.03-5.88-1.64-.17-3.47-.02-5.45.34-2,.33-4.15.87-6.4,1.55-1.12.34-2.27.71-3.44,1.1-1.17.37-2.37.76-3.58,1.14-2.42.78-4.89,1.6-7.36,2.34-9.93,2.84-19.89,4.47-25.79-.73-10.59,5.01-21.81,9.29-33.45,12.88-11.64,3.59-23.69,6.48-35.98,8.65-12.3,2.11-24.83,3.51-37.42,4.22-6.29.39-12.61.49-18.91.56-3.15-.04-6.3-.08-9.45-.13-3.15-.06-6.28-.25-9.42-.38-12.53-.66-24.96-1.95-37.13-3.78-12.17-1.85-24.08-4.3-35.63-7.12-1.44-.36-2.88-.72-4.32-1.08l-2.15-.54-2.13-.59c-2.83-.78-5.65-1.56-8.45-2.34-2.78-.84-5.55-1.68-8.29-2.51-1.38-.4-2.74-.84-4.09-1.29-1.35-.44-2.7-.89-4.05-1.33-10.74-3.58-21.06-7.34-30.86-11.36,3.4,7.64,1.9,11.27-2.99,12.31-2.44.52-5.71.44-9.52-.24-1.91-.32-3.96-.76-6.13-1.29-2.16-.53-4.41-1.23-6.75-1.95-4.7-1.42-9.62-3.32-14.64-5.2-2.49-1-5-2.01-7.49-3.02-1.25-.5-2.49-1-3.73-1.5-1.23-.52-2.45-1.03-3.65-1.53-2.42-1.01-4.81-1.94-7.11-2.87-2.29-.94-4.52-1.81-6.66-2.57-1.07-.38-2.12-.74-3.14-1.07-1.01-.35-1.99-.67-2.95-.96-1.91-.57-3.71-1.01-5.37-1.28-7.42-10.49-19.79-20.2-33.03-30.13-1.68-1.21-3.32-2.48-4.99-3.73-1.68-1.24-3.36-2.48-5.04-3.72-3.34-2.51-6.68-5.02-9.98-7.49-3.23-2.55-6.49-4.99-9.54-7.5-1.52-1.26-3.02-2.51-4.49-3.73-.73-.62-1.46-1.23-2.18-1.83-.7-.63-1.39-1.25-2.08-1.86-1.28.2-3.15-.36-5.25-1.2-1.05-.42-2.17-.9-3.3-1.4-1.12-.5-2.24-1.03-3.34-1.5-4.39-1.87-8.38-2.89-9.09,1.05,2.26,1.69,4.27,3.31,6.08,4.88,1.82,1.58,3.5,3.05,5.01,4.55,1.52,1.49,2.9,2.98,4.22,4.45,1.34,1.46,2.59,2.93,3.83,4.44,1.22,1.53,2.45,3.06,3.72,4.64,1.29,1.57,2.62,3.19,4.02,4.9,2.8,3.45,6.14,7.03,10.28,11.14-4.54,1.95-9.31.93-14.21-2.14-2.43-1.56-4.9-3.62-7.41-6.04-2.48-2.46-4.96-5.31-7.49-8.38-2.5-3.11-4.99-6.5-7.54-9.96-2.47-3.53-5.01-7.15-7.59-10.83-1.26-1.85-2.54-3.69-3.84-5.51-1.3-1.81-2.6-3.63-3.9-5.44-1.3-1.8-2.63-3.57-3.99-5.29-1.36-1.71-2.68-3.45-4.08-5.08l4.76,1.74c1.58.57,3.2,1.1,4.79,1.65,3.2,1.07,6.34,2.16,9.54,3.15-9.6-10.2-17.83-22.57-24.95-35.76-7.14-13.19-13.16-27.19-18.77-40.89-5.62-13.71-10.82-27.1-16.68-39.41-5.87-12.32-12.4-23.57-20.92-33.28.09,14.96.98,30.15,2.71,45.5-9-13.07-16.07-28.36-21.58-44.36-5.5-16.02-9.42-32.72-12.68-48.89-3.28-16.19-5.9-31.85-9.15-46.21-3.26-14.37-7.2-27.46-13.29-38.78-.68,10.71.36,23.14,2.27,35.63,1.93,12.49,4.82,25,7.26,36.19.64,2.79,1.22,5.51,1.74,8.13.54,2.62,1.07,5.12,1.48,7.53.79,4.82,1.4,9.13,1.43,12.88,0,3.75-.4,6.88-1.55,9.28-1.15,2.4-3.01,4.06-5.76,4.8-1.53.17-3.11-.44-4.71-1.71-1.59-1.27-3.25-3.19-4.77-5.65-1.55-2.46-3.07-5.43-4.54-8.76-1.4-3.35-2.72-7.07-3.97-11-1.18-3.94-2.22-8.1-3.18-12.3-.86-4.22-1.6-8.49-2.19-12.65-.51-4.18-.89-8.24-1.13-12.04-.15-3.81-.17-7.35-.05-10.47.78-13.54,1.01-26.39.91-38.84-.01-12.45-.46-24.5-.95-36.35-.16-2.96-.21-5.91-.36-8.85-.14-2.94-.31-5.86-.4-8.78-.11-2.92-.25-5.83-.4-8.73-.1-2.9-.21-5.8-.31-8.68-.06-1.45-.12-2.89-.18-4.33-.03-1.44-.06-2.88-.09-4.31-.07-2.88-.14-5.75-.2-8.61,0-5.72-.13-11.44.06-17.12.17-11.38.97-22.65,2.37-33.82.78-5.57,1.61-11.13,2.8-16.6,1.09-5.5,2.54-10.92,4.11-16.3,3.31-10.71,7.48-21.21,13.12-31.14.69-1.25,1.4-2.49,2.12-3.72.74-1.23,1.52-2.44,2.3-3.65,1.57-2.42,3.19-4.81,4.9-7.16,3.53-4.66,7.23-9.24,11.46-13.54Z"/><path class="cls-3" d="M702.36,632.66c-.3,2.9-.54,5.66-.75,8.3-.15,2.64-.25,5.16-.31,7.56-.05,2.4-.12,4.68-.06,6.85.06,2.17.15,4.23.26,6.19.12,1.96.27,3.81.44,5.57.19,1.76.45,3.43.7,5,.52,3.16,1.13,5.96,1.81,8.49,1.44,5.05,3.17,8.97,4.98,12.3,1.82,3.33,3.85,6.08,5.79,8.76,3.86,5.37,7.77,10.53,10.74,19.57.78,2.26,1.51,4.76,2.18,7.57.34,1.4.63,2.89.96,4.45.33,1.56.65,3.21.96,4.96.3,1.74.59,3.58.85,5.52.26,1.94.59,3.97.86,6.12.28,2.15.55,4.41.8,6.79.27,2.38.59,4.87.85,7.49-3.38-2.19-6.19-1.24-8.45,1.98-1.12,1.61-2.14,3.78-2.94,6.39-.79,2.6-1.44,5.65-1.94,9.01-.54,3.36-.77,7.01-.92,10.85-.07,1.92-.11,3.88-.1,5.87.04,1.98.12,3.99.23,6.01.11,2.02.26,4.05.43,6.07.19,2.02.46,4.02.73,5.99.56,3.95,1.2,7.82,2.08,11.4,7.04,12.85,12.11,27.46,17.01,41.78,4.86,14.31,9.51,28.35,14.86,39.64,1.23,4.11,1.27,7.47.41,9.73-.85,2.26-2.6,3.41-5.01,3.09-4.73-.67-12.3-7.29-19.18-23.16-2.5-21.99-7.85-43.6-13.68-65.78-2.99-11.08-6.02-22.3-9.06-33.58-1.41-5.68-3-11.35-4.33-17.08-.69-2.86-1.42-5.72-2.08-8.6-.64-2.88-1.28-5.76-1.92-8.64-.66-2.88-1.23-5.77-1.79-8.66-.56-2.89-1.14-5.78-1.66-8.68-.47-2.9-.95-5.8-1.42-8.69-.23-1.45-.47-2.89-.67-4.34-.19-1.45-.37-2.9-.56-4.34-.36-2.89-.71-5.78-1.03-8.66-.26-2.88-.5-5.76-.71-8.63-.48-5.74-.58-11.44-.67-17.09-.1-22.58,3.26-44.37,11.3-63.38Z"/><path class="cls-3" d="M782.65,571.65c-1.09,4.95-2.44,8.92-3.8,12.23-1.38,3.3-3.01,5.88-4.63,8.03-3.25,4.29-7.02,6.73-10.55,9.26-3.5,2.53-6.87,5.13-9.35,9.76-1.2,2.32-2.18,5.15-2.85,8.72-.35,1.78-.55,3.76-.66,5.94-.11,2.19-.13,4.58-.04,7.21-3.09-4.83-4.47-8.76-4.66-12.46-.14-3.7.86-7.18,2.4-11.21.82-2.01,1.79-4.15,2.82-6.53,1.04-2.38,2.12-5,3.33-7.93,1.2-2.93,2.33-6.22,3.56-9.91.61-1.85,1.22-3.81,1.8-5.89.29-1.04.58-2.11.86-3.22.29-1.1.59-2.24.9-3.4.34,3.92.89,7.86,1.35,11.75.45,3.88,1.07,7.77,1.65,11.62l4.32-6.16,4.46-6.04c2.92-4.01,6.04-7.9,9.09-11.76Z"/><path class="cls-3" d="M776.86,909.48c1.74,3.03,3.61,6.63,5.54,10.63,1.01,1.98,2.03,4.06,3.05,6.22,1.02,2.17,2.07,4.4,3.13,6.67,1.07,2.27,2.14,4.61,3.2,6.98,1.07,2.37,2.14,4.76,3.22,7.15,2.08,4.83,4.22,9.63,6.13,14.38.93,2.38,1.91,4.69,2.79,6.98.88,2.28,1.7,4.53,2.44,6.71,1.55,4.32,2.79,8.4,3.59,12.09,1.7,7.29,1.65,13.04-1.27,15.85,1.58,4.23-9.41,3.23,2.99,14.63-1.5-2.96-3.5-6.52-5.83-10.5-1.14-2.01-2.35-4.13-3.62-6.36-1.25-2.23-2.62-4.51-3.92-6.93-5.32-9.61-10.92-20.57-15.44-31.5-4.45-10.98-7.94-21.86-9.16-31.24-.32-2.34-.52-4.57-.59-6.67-.03-2.12.07-4.12.32-5.96.5-3.69,1.6-6.78,3.4-9.12Z"/><path class="cls-3" d="M800.24,779.83c1.35,3.21,2.68,6.42,3.83,9.79.58,1.68,1.17,3.39,1.78,5.14.59,1.75,1.17,3.55,1.73,5.4,1.16,3.7,2.42,7.6,3.67,11.84.67,2.11,1.37,4.29,2.1,6.56.36,1.14.73,2.3,1.11,3.48.4,1.17.81,2.37,1.23,3.6-1.8-3-3.7-6.16-5.69-9.47-2.03-3.32-3.92-6.88-5.62-10.66-.42-.95-.84-1.9-1.22-2.88-.36-.98-.71-1.98-1.03-2.98-.64-2.02-1.19-4.1-1.6-6.23-.41-2.14-.6-4.35-.68-6.61-.05-2.27,0-4.57.38-6.96Z"/><path class="cls-3" d="M819.85,926.79c3.9-5.17,7.34-.81,10.29,5.63,1.54,3.19,3,6.9,4.31,10.22,1.37,3.28,2.64,6.16,3.68,7.7.69,2.65,1.48,5.26,2.26,7.89.79,2.62,1.55,5.29,2.4,7.9-2.75-2.59-5.49-5.51-8.18-8.57-2.64-3.1-5.11-6.42-7.32-9.81-2.12-3.44-3.95-6.97-5.28-10.48-1.26-3.55-2.05-7.08-2.16-10.48Z"/><path class="cls-3" d="M955.96,1118.22c8.05,6.49,9.46,9.02,7.44,9.81-2.03.81-7.36-.36-12.48-1.52-1.29-.29-2.56-.57-3.75-.83-1.19-.27-2.3-.51-3.29-.69-1.98-.35-3.45-.42-3.97.04-1.01.89,1.7,4.12,12.19,11.2-4.26-2.34-8.57-4.62-12.76-7.1l-6.33-3.66-6.25-3.8c.3-3.56.62-7.11.97-10.64.36-3.54.77-7.1,1.19-10.62,4.37,3.17,8.9,6.11,13.36,9.14,2.25,1.48,4.54,2.92,6.81,4.37l3.41,2.18c1.14.72,2.3,1.41,3.45,2.11Z"/><text/><path class="cls-3" d="M976.93,1101.18c4.59,1.48,7.56,2.99,9.6,4.59,2.06,1.56,3.18,3.2,3.99,4.98,1.64,3.54,2.04,7.62,6.56,12.14-2.23.36-5.82-1.24-9.54-3.89-1.87-1.31-3.79-2.84-5.62-4.46-1.81-1.66-3.53-3.41-5.03-5.09-3.03-3.34-5.12-6.53-5.41-8.3-.29-1.77,1.2-2.12,5.45.03Z"/><path class="cls-3" d="M1168.52,1053.43c-7.71,6.35-18.37,6.15-30.1,3.63-2.93-.67-5.94-1.42-9.01-2.23-3.06-.86-6.18-1.74-9.34-2.63-1.58-.46-3.17-.91-4.77-1.34-1.61-.41-3.23-.83-4.85-1.25-1.62-.42-3.26-.8-4.91-1.14l-2.49-.48c-.83-.17-1.66-.33-2.49-.48,13.39,2.24,23.36,1.71,33.38,1.84,10.06.08,20.15.8,34.59,4.07Z"/><path class="cls-3" d="M1364.91,176.56c4.03,2.38,8.32,4.4,12.75,5.99,4.44,1.55,8.96,2.88,13.43,3.83,1.12.24,2.23.46,3.34.66,1.1.21,2.19.42,3.27.61,2.16.37,4.28.68,6.34.92,4.12.46,7.91.82,11.22.96-2.33-2.74-4.67-5.56-7.09-8.24l-10.83-1.54-10.83-1.28-2.7-.31-2.71-.25-5.4-.49-5.39-.48-5.4-.36Z"/><path class="cls-3" d="M1104.43,163.05c-3.86,5.33-4.68,8.43-3.3,10.03,1.39,1.58,5.04,1.84,10.31,1.56,1.32-.07,2.74-.17,4.26-.28,1.52-.09,3.13-.19,4.83-.29,3.4-.18,7.11-.44,11.1-.44,3.99,0,8.21.08,12.6.48,4.4.44,8.94,1.07,13.53,2.12,5.88-.23,11.73-.82,17.61-1.34,2.94-.28,5.88-.66,8.83-.98,2.95-.31,5.9-.67,8.86-1.06,2.96-.42,5.92-.75,8.9-1.14,2.98-.4,5.95-.79,8.93-1.19,5.97-.71,11.96-1.58,17.98-2.19,12.04-1.43,24.18-2.34,36.29-2.61,6.05-.04,12.09-.04,18.08.4,2.99.2,5.99.39,8.95.74,2.96.35,5.92.75,8.85,1.21,2.5-.49,5.01-.89,7.52-1.29l7.58-1.2c5.07-.77,10.16-1.39,15.3-2.06-13.87-4.34-30.68-8.62-49.3-11.85-18.61-3.24-39.03-5.42-59.84-5.88-20.8-.47-42.06.74-62.23,3.7-20.17,2.94-39.21,7.63-55.66,13.57Z"/><path class="cls-3" d="M1093.31,256.16c15.62-.68,31.96-5.92,47.72-11.05,15.69-5.16,30.76-10.16,41.92-11.23-2.36.08-4.76.16-7.19.25-2.43.16-4.9.32-7.39.49-4.99.28-10.06.89-15.2,1.39-10.23,1.24-20.62,2.72-30.56,4.71-4.99.89-9.84,2.03-14.57,3.04-2.36.51-4.66,1.12-6.92,1.65-2.26.56-4.49,1.07-6.64,1.65-2.15.58-4.25,1.14-6.29,1.69-2.04.55-4.02,1.07-5.91,1.64-3.78,1.13-7.33,2.09-10.49,3.09-.91,2.49,2.44,2.97,7.04,3.03,2.3.01,4.9-.12,7.43-.25,2.54-.09,5.02-.15,7.04-.08Z"/><path class="cls-3" d="M1717.55,461.53c-6.76-13.9-13.95-29.26-22.31-45.05-8.34-15.79-17.84-32-28.83-47.42-10.98-15.42-23.45-30.05-37.31-42.58-13.84-12.54-29.07-22.93-45.14-30.02,5.05,5.92,8.64,10.6,11.54,14.98,1.46,2.17,2.79,4.24,4.1,6.29,1.27,2.08,2.53,4.14,3.86,6.32,2.71,4.3,5.63,9.09,9.76,15.06,2.03,3.02,4.31,6.37,7,10.13,1.32,1.89,2.73,3.9,4.23,6.04,1.49,2.15,3.15,4.36,4.82,6.8-5.02-1.59-9.53-3.54-13.51-5.94-4.03-2.37-7.65-5.07-10.92-8.16-3.34-3.01-6.35-6.38-9.2-9.97-1.45-1.77-2.85-3.61-4.22-5.51-1.37-1.89-2.7-3.86-4.07-5.8-2.73-3.9-5.33-8.06-8.15-12.13-1.4-2.05-2.81-4.12-4.22-6.2-1.44-2.07-2.95-4.09-4.47-6.13-6.09-8.18-13.1-15.94-21.51-22.48,6.02,6.41,7.87,9.88,6.92,11.25-.93,1.35-4.65.61-9.8-1.41-1.29-.5-2.67-1.09-4.12-1.74-1.47-.63-3.01-1.32-4.6-2.07-3.19-1.48-6.55-3.24-10.05-4.97-6.93-3.58-14.17-7.47-20.37-11.12-20.9-17.68-51.51-36.34-86.7-50.85-17.56-7.3-36.2-13.63-55.07-18.79-18.87-5.17-37.98-9.06-56.43-11.92-2.07.19-4.4.25-6.96.21-2.56-.03-5.34-.09-8.3-.26-2.96-.17-6.09-.43-9.38-.64-3.28-.22-6.69-.55-10.2-.82-14.04-1.14-29.63-2.14-43.76-2.06-7.06-.02-13.75.38-19.68.91-2.96.31-5.74.73-8.27,1.18-2.53.47-4.83.94-6.83,1.6-8.03,2.55-11.36,6.17-7.28,11.55-2.73.27-5.31.55-7.77.75-2.46.2-4.79.31-7.01.36-4.44.16-8.44.11-12.15-.2-3.7-.28-7.09-.65-10.31-1.23-1.61-.28-3.17-.61-4.7-.93-1.53-.31-3.03-.64-4.51-.99-2.97-.7-5.88-1.47-8.83-2.2-2.95-.68-5.96-1.34-9.14-1.89-3.19-.58-6.52-.94-10.14-1.12-3.62-.18-7.53-.17-11.8.27-11.52,6.15-22.74,11.2-33.97,15.35-2.8,1.06-5.61,2.04-8.43,2.96-2.8.98-5.6,1.89-8.42,2.75-2.83.84-5.64,1.67-8.44,2.51-2.81.82-5.66,1.54-8.49,2.3-5.64,1.55-11.37,2.88-17.07,4.3-5.74,1.32-11.46,2.74-17.27,4.05-2.9.66-5.77,1.4-8.68,2.08-2.91.69-5.83,1.36-8.73,2.12-2.92.74-5.84,1.48-8.76,2.22-2.92.8-5.83,1.61-8.75,2.41l-4.4,1.24-4.37,1.34c-2.91.91-5.85,1.82-8.76,2.79-5.79,2.02-11.65,4.07-17.37,6.48-5.78,2.32-11.44,4.98-17.08,7.79-2.81,1.42-5.57,2.96-8.34,4.51-1.38.78-2.76,1.58-4.13,2.39-1.36.83-2.71,1.68-4.05,2.55-10.82,6.84-21.05,15.04-30.38,24.69-2.31,2.44-4.64,4.89-6.82,7.52-2.19,2.62-4.33,5.33-6.41,8.11-4.08,5.65-7.96,11.61-11.37,18.07-1.2-3.59-4.45-3.7-8.94-1.56-2.22,1.1-4.72,2.78-7.43,4.86-1.35,1.05-2.76,2.18-4.17,3.42-1.41,1.25-2.84,2.59-4.3,3.98-1.46,1.4-2.93,2.85-4.42,4.35-1.46,1.51-2.91,3.09-4.37,4.67-1.44,1.59-2.88,3.2-4.32,4.78-1.41,1.61-2.77,3.25-4.12,4.84-2.69,3.19-5.26,6.28-7.52,9.17-2.28,2.87-4.39,5.44-6.14,7.59-7.4,9.62-16.93,22.86-25.87,37.57-8.97,14.69-17.28,30.85-23.08,45.58-1.45,3.68-2.8,7.24-3.89,10.7-1.11,3.45-2.12,6.73-2.88,9.84-1.47,6.24-2.39,11.63-2.26,15.93.16,8.58,3.62,12.37,11.74,9.1,1.73-1.44,3.35-3.04,4.87-4.8,1.52-1.76,3.02-3.65,4.39-5.69,1.39-2.03,2.67-4.22,3.95-6.51,1.3-2.28,2.53-4.68,3.72-7.19,1.17-2.52,2.37-5.11,3.56-7.78,1.19-2.67,2.3-5.46,3.5-8.27,1.2-2.81,2.4-5.69,3.6-8.63,1.2-2.94,2.51-5.87,3.79-8.87,5.21-11.92,11.08-24.24,18.57-35.26,7.46-11.03,16.33-20.87,27.02-27.74,4.51-3.03,8.34-5.28,11.44-6.96,3.12-1.67,5.63-2.68,7.5-3.22,3.75-1.06,5.11-.09,4.77,2.32-.32,2.43-2.43,6.26-5.39,11.19-3.03,4.88-6.94,10.85-11.17,17.34-2.06,3.29-4.27,6.66-6.4,10.15-2.1,3.51-4.27,7.04-6.28,10.62-1.98,3.6-3.98,7.13-5.72,10.66-1.73,3.53-3.38,6.94-4.75,10.23-1.35,3.3-2.52,6.43-3.43,9.31-.88,2.89-1.46,5.57-1.75,7.9-.28,2.33-.26,4.34.15,5.95.43,1.62,1.22,2.83,2.44,3.58.37-2.99,2.07-4.93,4.39-6.71,2.35-1.77,5.36-3.39,8.76-5.55,3.38-2.18,6.95-5.01,10.56-9.2,3.55-4.24,7.07-9.86,10.33-17.82-3.97,8.14-6.2,14.11-7.15,18.38-.98,4.25-.8,6.74.22,8.02,2.01,2.53,7.26.22,13.09-2.79.72-.38,1.46-.77,2.21-1.16.75-.38,1.52-.77,2.28-1.15,1.52-.76,3.03-1.51,4.51-2.18,2.94-1.35,5.7-2.38,8.02-2.63,2.3-.26,4.09.23,5.07,1.9.98,1.67,1.1,4.49.25,8.99,13.23-13.81,23.59-22.89,31.96-29.4,2.06-1.66,4.07-3.08,5.94-4.41,1.88-1.31,3.63-2.52,5.33-3.58,3.44-2.09,6.51-3.76,9.51-5.09,3.03-1.3,5.94-2.29,8.94-3.09,3.02-.79,6.2-1.34,9.65-1.83,3.44-.51,7.29-.82,11.62-1.16,4.3-.36,9.25-.58,14.83-.87,6.76-7.74,10.75-13.84,12.86-19.06,2.15-5.16,2.31-9.57,1.74-13.44-.59-3.9-2.02-7.41-3.1-10.96-.54-1.77-.99-3.56-1.19-5.41-.21-1.86-.16-3.79.32-5.81,7.78-9.37,16.97-16.11,26.56-21.22,4.77-2.6,9.74-4.65,14.67-6.56,5-1.78,9.95-3.42,14.96-4.76,4.96-1.45,9.97-2.59,14.85-3.87,2.46-.59,4.91-1.17,7.33-1.8l7.22-1.9c9.53-2.68,18.77-5.74,27.7-10.55-2.1,5.38-2.41,9.55-1.45,12.54.97,3.02,3.21,4.85,6.45,5.94,6.47,2.14,16.77.88,29-1.41,12.22-2.31,26.45-5.6,40.52-8.31,14.05-2.74,27.95-4.89,39.03-5.84,7.18-.31,12.84-.77,17.41-1.69,4.57-.77,8.05-1.97,10.81-3.37,5.53-2.7,8.2-6.56,11.02-10.27,1.41-1.85,2.87-3.69,4.77-5.36,1.9-1.65,4.25-3.24,7.43-4.32,1.59-.56,3.4-1.03,5.46-1.4,1.03-.18,2.13-.35,3.3-.46,1.17-.1,2.4-.17,3.72-.2,5.26-.18,11.74.3,19.75,1.73,7.44,5.3,6.73,8.74,2.44,11.35-1.07.65-2.38,1.25-3.84,1.81-1.46.56-3.09,1.07-4.82,1.63-1.73.54-3.55,1.06-5.41,1.57-1.86.51-3.75,1.01-5.62,1.58-1.87.56-3.71,1.12-5.46,1.69-.88.29-1.73.58-2.55.88-.82.31-1.62.64-2.38.97-3.03,1.32-5.45,2.73-6.8,4.3-2.71,3.16-1.05,7,8.26,12.13,4.58-.76,9.22-1.63,13.87-2.24,2.32-.31,4.67-.72,7.01-.96l7.05-.82c9.68-5.42,19.09-11.73,29.24-16.99,10.16-5.35,21.07-9.65,33.62-11.07,3.33.94,7.09,1.95,10.79,3.22,1.85.61,3.7,1.25,5.49,1.89,1.78.67,3.49,1.39,5.09,2.1,1.6.71,3.09,1.43,4.4,2.15,1.32.72,2.44,1.49,3.36,2.22,1.83,1.47,2.78,2.87,2.42,4.17-3.4-.5-6.29-.77-8.76-.63-2.46.12-4.46.5-6.01,1.1-3.1,1.21-4.43,3.32-4.22,6.04.21,2.72,1.96,6.04,5.01,9.65,1.52,1.83,3.35,3.8,5.49,5.78,2.15,1.96,4.56,4.09,7.26,6.21,1.69-.06,3.23-.11,4.63-.15,1.41-.03,2.68-.05,3.84-.07,2.35-.06,4.3-.15,6.07-.32,3.52-.28,6.3-.85,10.23-2.03-2.01-3.55-3.61-6.6-4.81-9.18-1.22-2.53-2.04-4.6-2.46-6.25-.84-3.31-.1-4.96,1.96-5.32,2.06-.36,5.45.49,9.73,2.37,1.07.46,2.21.98,3.39,1.54,1.19.55,2.43,1.17,3.7,1.86,2.54,1.37,5.3,2.87,8.16,4.54,11.49,6.69,24.89,15.81,37.85,23.94,13.01,8.1,25.63,15.22,36.84,17.12,6.9,2.99,12.95,6.12,18.29,9.22,2.65,1.58,5.14,3.13,7.47,4.67,2.29,1.58,4.42,3.14,6.41,4.67,2.01,1.51,3.79,3.08,5.46,4.59,1.67,1.52,3.21,3,4.61,4.47,2.74,3,5.02,5.85,6.84,8.65,1.79,2.83,3.17,5.54,4.24,8.18,1.05,2.65,1.74,5.26,2.24,7.78,1.01,5.03.98,9.96.87,14.83-.05,2.43-.18,4.89-.27,7.4-.08,2.5-.12,5.03-.01,7.61.1,2.59.27,5.3.7,8.07.21,1.39.47,2.8.8,4.24.31,1.45.67,2.95,1.12,4.47.89,3.04,2.1,6.2,3.58,9.62.75,1.7,1.61,3.44,2.56,5.24.91,1.82,1.94,3.7,3.08,5.63,4.51,7.76,10.72,16.55,18.87,27.3,3.25-11.11,7.8-13.55,13.62-10.03,1.47.87,2.94,2.13,4.48,3.71,1.53,1.58,3.15,3.46,4.77,5.62,1.59,2.18,3.22,4.62,4.89,7.26,1.65,2.65,3.24,5.55,4.91,8.57,6.54,12.15,12.75,26.96,18.22,40.85,5.51,13.89,10.46,26.83,15.63,35.21,3.26,15.58,2.57,26.76.42,36.67-.59,2.49-1.26,4.9-2,7.29-.37,1.19-.75,2.38-1.15,3.57-.44,1.19-.87,2.38-1.32,3.59-.91,2.39-1.84,4.82-2.81,7.36-1.01,2.52-2.08,5.14-3.13,7.88.54,1,1.09,2.24,1.6,3.65.5,1.42.99,3.01,1.49,4.7.49,1.7,1,3.5,1.52,5.33.47,1.84.94,3.71,1.44,5.55.5,1.84,1.03,3.65,1.57,5.35.5,1.71,1.04,3.31,1.63,4.74,1.17,2.86,2.51,5.04,4.12,5.96,5.48-2.18,10.92-5.3,16.3-9.38,2.71-2.04,5.3-4.33,7.91-6.85,2.59-2.53,5.2-5.3,7.71-8.31,10.04-12.04,19.26-27.99,26.73-47.66,7.5-19.66,13.01-43.01,15.74-69.42,1.28-13.18,1.91-27.13,1.64-41.68-.31-14.53-1.46-29.69-3.57-45.29-2.15-2.62-4.07-4.83-4.89-4.34Z"/></g><text class="cls-1" transform="translate(690.93 945.48) rotate(.03)"><tspan x="0" y="0">Creations</tspan></text><text class="cls-4" transform="translate(764.78 755.71)"><tspan x="0" y="0">Vinther </tspan></text><text class="cls-2" transform="translate(820.33 546.13) scale(.87 1)"><tspan x="0" y="0">Shoelle</tspan></text></svg>