<svg width="70" height="70" viewBox="0 0 70 70" fill="none" xmlns="http://www.w3.org/2000/svg">
<path d="M21.25 21.98L13.75 29.48L21.25 36.98" stroke="#00523D" stroke-width="6" stroke-linecap="round" stroke-linejoin="round"/>
<path d="M48.75 21.98L56.25 29.48L48.75 36.98" stroke="#00523D" stroke-width="6" stroke-linecap="round" stroke-linejoin="round"/>
<path d="M31.25 39.48L38.75 16.98" stroke="#00523D" stroke-width="6" stroke-linecap="round" stroke-linejoin="round"/>
<path d="M42.3549 52.1L45.5549 65.64H24.4449L27.6399 52.1" stroke="#00523D" stroke-width="6" stroke-linecap="round" stroke-linejoin="round"/>
<path d="M16.29 65.64H53.715" stroke="#00523D" stroke-width="6" stroke-linecap="round" stroke-linejoin="round"/>
<path d="M5.57 46.55C5.94 48.77 7.67 50.55 9.895 50.81C17.86 51.76 26.345 52.1 35 52.1C43.675 52.1 52.015 51.76 60.09 50.805C62.325 50.54 64.06 48.76 64.425 46.54C65.25 41.515 66.25 36.605 66.25 28.23C66.25 19.575 65.815 14.5 64.67 9.35499C64.4511 8.40162 63.9406 7.54016 63.2093 6.89046C62.4781 6.24076 61.5625 5.83513 60.59 5.72999C52.0935 4.78039 43.5493 4.32295 35 4.35999C26.145 4.35999 17.47 4.66999 9.35 5.69999C8.3927 5.81683 7.49434 6.22471 6.77631 6.86853C6.05827 7.51234 5.55518 8.36106 5.335 9.29999C4.14 14.51 3.75 19.165 3.75 28.23C3.75 36.915 4.75 41.625 5.57 46.55Z" stroke="#00523D" stroke-width="6" stroke-linecap="round" stroke-linejoin="round"/>
</svg>
