<svg width="70" height="70" viewBox="0 0 70 70" fill="none" xmlns="http://www.w3.org/2000/svg">
<rect width="70" height="70" stroke="#00523D"/>
<path d="M32.5098 25.0196V3.75" stroke="#00523D" stroke-width="5" stroke-linecap="round" stroke-linejoin="round"/>
<path d="M35 44.8242C40 49.8242 50 55 62.5 55" stroke="#00523D" stroke-width="5" stroke-linecap="round" stroke-linejoin="round"/>
<path d="M13.5847 67.457C13.5847 66.2525 13.5877 64.775 13.5917 63.324C13.6027 59.3715 12.7249 55.4425 10.6467 52.0805C6.87085 45.9725 3.75 41.9589 3.75 29.9998C3.75 18.8921 7.7122 11.3095 14.9701 7.2522" stroke="#00523D" stroke-width="5" stroke-linecap="round" stroke-linejoin="round"/>
<path d="M58.1495 46.1262V43.1014L62.073 43.0028C62.7185 43.0025 63.355 42.8468 63.9275 42.5487C64.5005 42.2507 64.993 41.8191 65.364 41.2905C67.9415 37.6158 57.446 28.7048 56.7 23.3491C55.526 14.9189 51.183 9.66299 45.2612 6.74194" stroke="#00523D" stroke-width="5" stroke-linecap="round" stroke-linejoin="round"/>
<path d="M43.6768 61.249V67.457" stroke="#00523D" stroke-width="5" stroke-linecap="round" stroke-linejoin="round"/>
<path d="M32.5098 45C38.9098 45 42.5098 41.4 42.5098 35C42.5098 28.6 38.9098 25 32.5098 25C26.1098 25 22.5098 28.6 22.5098 35C22.5098 41.4 26.1098 45 32.5098 45Z" stroke="#00523D" stroke-width="5" stroke-linecap="round" stroke-linejoin="round"/>
</svg>
