<svg width="70" height="70" viewBox="0 0 70 70" fill="none" xmlns="http://www.w3.org/2000/svg">
<path d="M34.5946 6.97077C36.0059 6.03032 37.6601 5.52027 39.3559 5.50267C41.0518 5.48506 42.7162 5.96066 44.1467 6.87161L56.2625 14.5833H61.25C62.0236 14.5833 62.7655 14.8906 63.3124 15.4375C63.8594 15.9845 64.1667 16.7264 64.1667 17.4999V43.7499C64.1667 44.5235 63.8594 45.2654 63.3124 45.8123C62.7655 46.3593 62.0236 46.6666 61.25 46.6666H56.8167C56.9103 48.0869 56.6098 49.5054 55.9485 50.7658C55.2871 52.0262 54.2906 53.0794 53.0688 53.8095L38.2142 62.7229C37.3015 63.2701 36.2564 63.5572 35.1922 63.553C34.128 63.5489 33.0852 63.2538 32.1767 62.6995C31.1534 63.6037 29.8454 64.1202 28.4805 64.1591C27.1156 64.198 25.7802 63.7568 24.7071 62.9124L9.71546 51.132C8.66751 50.3097 7.93256 49.1536 7.63276 47.8557C7.33297 46.5578 7.4864 45.1964 8.06754 43.9979C7.37106 43.4518 6.80796 42.7544 6.42089 41.9585C6.03381 41.1627 5.8329 40.2891 5.83337 39.4041V17.4999C5.83337 16.7264 6.14067 15.9845 6.68765 15.4375C7.23463 14.8906 7.97649 14.5833 8.75004 14.5833H23.1788L34.5946 6.97077ZM12.1713 39.8008L14.1896 38.0362C15.9145 36.5274 18.1624 35.7555 20.4504 35.8864C22.7383 36.0173 24.8835 37.0405 26.425 38.7362L34.3059 47.4045C35.5417 48.7639 36.3184 50.4778 36.5257 52.3032C36.733 54.1287 36.3604 55.9731 35.4609 57.5749L50.0705 48.8104C50.4513 48.5794 50.7403 48.2235 50.8881 47.8034C51.036 47.3832 51.0336 46.9248 50.8813 46.5062L37.9692 28.4287C37.6156 27.9332 37.1159 27.5608 36.54 27.3637C35.9641 27.1665 35.341 27.1544 34.758 27.3291L27.5071 29.502C25.994 29.9559 24.3862 29.9916 22.8544 29.6055C21.3226 29.2193 19.9239 28.4256 18.8067 27.3087L17.9521 26.457C17.177 25.682 16.636 24.7043 16.3909 23.636C16.1459 22.5677 16.2068 21.4519 16.5667 20.4166H11.6667V39.4041L12.1713 39.8008ZM41.0171 11.7949C40.5397 11.4908 39.984 11.3321 39.418 11.3383C38.8519 11.3445 38.2999 11.5154 37.8292 11.8299L22.0792 22.3299L22.9309 23.1845C23.3036 23.5568 23.7703 23.8212 24.2813 23.9496C24.7923 24.078 25.3285 24.0656 25.833 23.9137L33.0809 21.7408C34.8298 21.2163 36.699 21.2521 38.4265 21.8431C40.1541 22.4342 41.6535 23.5508 42.7146 25.0366L54.0021 40.8333H58.3334V20.4166H56.2655C55.1557 20.4165 54.069 20.0998 53.133 19.5037L41.0171 11.7949ZM18.028 42.4229L13.3146 46.547L28.3063 58.3274L30.3625 54.7341C30.6681 54.1989 30.7962 53.5807 30.7286 52.9682C30.661 52.3556 30.4012 51.7802 29.9863 51.3245L22.1084 42.6562C21.5946 42.0913 20.8797 41.7504 20.1173 41.7067C19.3549 41.6631 18.6029 41.9202 18.028 42.4229Z" fill="#00523D"/>
</svg>
