<svg width="70" height="70" viewBox="0 0 70 70" fill="none" xmlns="http://www.w3.org/2000/svg">
<rect width="70" height="70" stroke="black"/>
<path d="M8.1678 62.046C10.9475 62.046 13.2009 59.7925 13.2009 57.013C13.2009 54.2335 10.9475 51.98 8.1678 51.98C5.38815 51.98 3.13477 54.2335 3.13477 57.013C3.13477 59.7925 5.38815 62.046 8.1678 62.046Z" stroke="#00523D" stroke-width="5" stroke-linecap="round" stroke-linejoin="round"/>
<path d="M8.16895 51.9805V28.6621" stroke="#00523D" stroke-width="5" stroke-linecap="round" stroke-linejoin="round"/>
<path d="M51.9725 34.0808C52.0195 35.0378 52.0465 36.0013 52.0465 36.9708C52.0465 39.3891 51.878 41.7703 51.6515 44.1045C51.1745 49.0116 47.2623 52.977 42.457 53.4675C40.0182 53.7165 37.5282 53.907 34.9979 53.907C32.4676 53.907 29.9775 53.7165 27.5388 53.4675C22.7335 52.977 18.8211 49.0116 18.3444 44.1045C18.1177 41.7703 17.9492 39.3891 17.9492 36.9708C17.9492 36.0013 17.9763 35.0378 18.0234 34.0808" stroke="#00523D" stroke-width="5" stroke-linecap="round" stroke-linejoin="round"/>
<path d="M5.0412 21.1477C2.50019 22.7423 2.50169 25.0282 5.0313 26.6273C8.53325 28.8411 12.1538 31.1399 16.3608 33.247C20.5678 35.354 25.1579 37.1673 29.5781 38.9212C32.7709 40.1881 37.3351 40.1889 40.5189 38.9162C44.9052 37.1629 49.4481 35.3444 53.636 33.247C57.824 31.1495 61.455 28.8742 64.9555 26.6774C67.4965 25.0829 67.495 22.7969 64.9655 21.1979C61.4635 18.9841 57.843 16.6852 53.636 14.5782C49.429 12.4711 44.839 10.6578 40.4188 8.90394C37.226 7.63704 32.6618 7.63629 29.478 8.90889C25.0918 10.6622 20.5488 12.4807 16.3608 14.5782C12.1729 16.6756 8.54205 18.9509 5.0412 21.1477Z" stroke="#00523D" stroke-width="5" stroke-linecap="round" stroke-linejoin="round"/>
</svg>
