<svg width="70" height="70" viewBox="0 0 70 70" fill="none" xmlns="http://www.w3.org/2000/svg">
<path d="M34.5946 6.97083C36.0059 6.03039 37.6601 5.52034 39.3559 5.50273C41.0518 5.48512 42.7162 5.96072 44.1467 6.87167L56.2625 14.5833H61.25C62.0236 14.5833 62.7655 14.8906 63.3124 15.4376C63.8594 15.9846 64.1667 16.7265 64.1667 17.5V43.75C64.1667 44.5236 63.8594 45.2654 63.3124 45.8124C62.7655 46.3594 62.0236 46.6667 61.25 46.6667H56.8167C56.9103 48.0869 56.6098 49.5055 55.9485 50.7658C55.2871 52.0262 54.2906 53.0795 53.0688 53.8096L38.2142 62.7229C37.3015 63.2701 36.2564 63.5572 35.1922 63.5531C34.128 63.549 33.0852 63.2538 32.1767 62.6996C31.1534 63.6037 29.8454 64.1202 28.4805 64.1591C27.1156 64.198 25.7802 63.7569 24.7071 62.9125L9.71546 51.1321C8.66751 50.3098 7.93256 49.1536 7.63276 47.8558C7.33297 46.5579 7.4864 45.1965 8.06754 43.9979C7.37106 43.4519 6.80796 42.7545 6.42089 41.9586C6.03381 41.1627 5.8329 40.2892 5.83337 39.4042V17.5C5.83337 16.7265 6.14067 15.9846 6.68765 15.4376C7.23463 14.8906 7.97649 14.5833 8.75004 14.5833H23.1788L34.5946 6.97083ZM12.1713 39.8008L14.1896 38.0363C15.9145 36.5274 18.1624 35.7555 20.4504 35.8864C22.7383 36.0173 24.8835 37.0406 26.425 38.7363L34.3059 47.4046C35.5417 48.764 36.3184 50.4778 36.5257 52.3033C36.733 54.1287 36.3604 55.9731 35.4609 57.575L50.0705 48.8104C50.4513 48.5795 50.7403 48.2236 50.8881 47.8034C51.036 47.3833 51.0336 46.9248 50.8813 46.5063L37.9692 28.4288C37.6156 27.9333 37.1159 27.5609 36.54 27.3637C35.9641 27.1665 35.341 27.1545 34.758 27.3292L27.5071 29.5021C25.994 29.9559 24.3862 29.9917 22.8544 29.6055C21.3226 29.2194 19.9239 28.4257 18.8067 27.3088L17.9521 26.4571C17.177 25.6821 16.636 24.7044 16.3909 23.6361C16.1459 22.5677 16.2068 21.452 16.5667 20.4167H11.6667V39.4042L12.1713 39.8008ZM41.0171 11.795C40.5397 11.4908 39.984 11.3322 39.418 11.3384C38.8519 11.3446 38.2999 11.5154 37.8292 11.83L22.0792 22.33L22.9309 23.1846C23.3036 23.5569 23.7703 23.8213 24.2813 23.9497C24.7923 24.0781 25.3285 24.0657 25.833 23.9138L33.0809 21.7408C34.8298 21.2164 36.699 21.2522 38.4265 21.8432C40.1541 22.4342 41.6535 23.5508 42.7146 25.0367L54.0021 40.8333H58.3334V20.4167H56.2655C55.1557 20.4165 54.069 20.0998 53.133 19.5037L41.0171 11.795ZM18.028 42.4229L13.3146 46.5471L28.3063 58.3275L30.3625 54.7342C30.6681 54.199 30.7962 53.5808 30.7286 52.9682C30.661 52.3557 30.4012 51.7803 29.9863 51.3246L22.1084 42.6563C21.5946 42.0913 20.8797 41.7504 20.1173 41.7068C19.3549 41.6632 18.6029 41.9203 18.028 42.4229Z" fill="#00523D"/>
</svg>
