<svg width="70" height="70" viewBox="0 0 70 70" fill="none" xmlns="http://www.w3.org/2000/svg">
<path d="M15.0316 5.0675C21.5447 4.32941 28.6898 3.75 35.2442 3.75C41.7991 3.75 48.9499 4.32953 55.4665 5.06775C59.952 5.5759 63.4735 9.129 63.962 13.6169C64.668 20.0959 65.244 27.2338 65.244 33.75C65.244 40.2679 64.6675 47.4194 63.9615 53.9065C63.473 58.3945 59.952 61.9475 55.466 62.451C48.9495 63.1825 41.7989 63.75 35.2442 63.75C29.5278 63.75 23.3621 63.3185 17.5582 62.723L2.74414 66.25L6.17755 50.4565C5.64055 44.9425 5.24435 39.1303 5.24435 33.75C5.24435 27.2337 5.82545 20.0958 6.53395 13.6167C7.0247 9.129 10.5459 5.57585 15.0316 5.0675Z" stroke="#00523D" stroke-width="5" stroke-linecap="round" stroke-linejoin="round"/>
<path d="M18.6808 39.9243C17.2053 41.7098 17.4071 44.3715 19.2856 45.7268C19.8874 46.161 20.5773 46.6339 21.7385 47.5622C25.1665 50.3025 30.1302 50.3025 33.5461 47.547C36.0677 45.5128 38.6122 43.3799 40.9965 40.9956C43.3808 38.6114 45.5136 36.0669 47.5479 33.5452C50.3035 30.1294 50.3035 25.1657 47.563 21.7376C46.5839 20.5128 46.118 19.8188 45.6675 19.1972C44.3548 17.3861 41.7937 17.1389 40.0543 18.5451C37.7596 20.4003 35.6316 22.609 33.5437 24.4854C35.5306 26.628 34.7742 26.062 36.6668 28.0807C34.3367 32.0019 31.9312 34.3784 28.0815 36.6659C26.0596 34.7704 26.6223 35.5238 24.4761 33.5335C22.6086 35.6046 20.5188 37.7 18.6808 39.9243Z" stroke="#00523D" stroke-width="5" stroke-linecap="round" stroke-linejoin="round"/>
</svg>
