<svg width="70" height="70" viewBox="0 0 70 70" fill="none" xmlns="http://www.w3.org/2000/svg">
<g clip-path="url(#clip0_64_47)">
<path d="M11.2012 13.194C16.7232 12.2967 21.3663 10.9656 35.001 10.9656C45.4965 10.9656 53.853 11.9479 59.0075 12.7697C62.4125 13.3125 64.765 16.29 64.765 19.7377V49.0736C64.765 53.039 61.6695 56.304 57.762 56.9815C56.893 57.132 56.031 57.291 55.1355 57.451" stroke="#00523D" stroke-width="5" stroke-linecap="round" stroke-linejoin="round"/>
<path d="M5.23682 28.0225H10.3526M11.2984 13.2038C11.4995 13.1538 11.7034 13.1111 11.9096 13.0759C12.5876 12.9604 13.2586 12.8393 13.9415 12.7161C18.5258 11.889 23.6444 10.9656 35.0011 10.9656C45.6822 10.9656 54.148 11.9829 59.2785 12.8131C62.52 13.3377 64.765 16.1749 64.765 19.4586V28.0225H23.8395" stroke="#00523D" stroke-width="5" stroke-linecap="round" stroke-linejoin="round"/>
<path d="M42.7148 46.0059H52.7975" stroke="#00523D" stroke-width="5" stroke-linecap="round" stroke-linejoin="round"/>
<path d="M2.75098 2.75024C24.56 30.6869 38.7155 44.6912 67.251 67.25" stroke="#00523D" stroke-width="5" stroke-linecap="round" stroke-linejoin="round"/>
<path d="M5.23682 28.0237V49.0744C5.23682 53.04 8.33292 56.305 12.2403 56.9825C17.3461 57.868 22.2281 59.036 35.001 59.036C35.3959 59.036 35.7833 59.035 36.1633 59.0325" stroke="#00523D" stroke-width="5" stroke-linecap="round" stroke-linejoin="round"/>
</g>
<defs>
<clipPath id="clip0_64_47">
<rect width="70" height="70" fill="white"/>
</clipPath>
</defs>
</svg>
